<?xml version="1.0"?>
<svg xmlns="http://www.w3.org/2000/svg" xmlns:xlink="http://www.w3.org/1999/xlink" xmlns:svgjs="http://svgjs.com/svgjs" version="1.1" width="512" height="512" x="0" y="0" viewBox="0 0 24 24" style="enable-background:new 0 0 512 512" xml:space="preserve"><g><path xmlns="http://www.w3.org/2000/svg" d="M23,22H3a1,1,0,0,1-1-1V1A1,1,0,0,0,0,1V21a3,3,0,0,0,3,3H23a1,1,0,0,0,0-2Z" fill="#2b303a" data-original="#000000"/><path xmlns="http://www.w3.org/2000/svg" d="M15,20a1,1,0,0,0,1-1V12a1,1,0,0,0-2,0v7A1,1,0,0,0,15,20Z" fill="#2b303a" data-original="#000000"/><path xmlns="http://www.w3.org/2000/svg" d="M7,20a1,1,0,0,0,1-1V12a1,1,0,0,0-2,0v7A1,1,0,0,0,7,20Z" fill="#2b303a" data-original="#000000"/><path xmlns="http://www.w3.org/2000/svg" d="M19,20a1,1,0,0,0,1-1V7a1,1,0,0,0-2,0V19A1,1,0,0,0,19,20Z" fill="#2b303a" data-original="#000000"/><path xmlns="http://www.w3.org/2000/svg" d="M11,20a1,1,0,0,0,1-1V7a1,1,0,0,0-2,0V19A1,1,0,0,0,11,20Z" fill="#2b303a" data-original="#000000"/></g></svg>
